<svg width="100" height="100" viewBox="0 0 100 100" xmlns="http://www.w3.org/2000/svg"><path d="M75.581 17c2.002 0 3.788.606 5.137 1.963 1.623 1.701 2.314 4.739 2.281 8.325l-.005.498h-11.098v46.368c0 2.515-.875 4.755-2.49 6.379-1.478 1.433-4.143 2.468-6.355 2.468h-40.298c-3.58 0-6.752-3.258-6.752-7.485 0-1.858.799-3.667 2.122-5.115 1.346-1.5 2.926-2.37 4.63-2.37h.878v-43.52c0-1.906.866-3.749 2.314-5.208 1.441-1.45 3.252-2.301 5.154-2.301h44.483zm-17.977 55h-34.596c-.357 0-1.237.456-1.846 1.066-.704.727-1.162 1.696-1.162 2.446 0 1.968 1.659 3.489 3.008 3.489h34.468c-.574-1.035-.883-2.215-.883-3.489 0-1.272.351-2.415 1.01-3.511zm11.397-51h-38.284c-.793 0-1.765.451-2.523 1.182-.73.723-1.193 1.708-1.193 2.499v43.226h35.933c1.007 0 1.895.87 1.895 1.878 0 1.007-.888 1.876-1.895 1.876-1.39 0-2.994 1.543-2.994 3.681 0 2.12 1.606 3.657 2.994 3.657 1.594 0 2.855-.477 3.742-1.353.887-.88 1.365-2.106 1.365-3.656v-47.241c0-2.58.22-4.301.96-5.749zm-7.905 36.001c1.012-.038 1.905.903 1.905 1.985 0 1.023-.799 1.923-1.745 2.007l-.143.006h-26.158c-1.001.035-1.918-.865-1.951-1.899-.065-1.022.697-1.969 1.63-2.088l.141-.011h26.32zm0-10c1.012-.038 1.905.903 1.905 1.985 0 1.022-.799 1.923-1.745 2.007l-.143.006h-26.158c-1.001.035-1.918-.865-1.951-1.899-.065-1.021.698-1.969 1.63-2.088l.141-.012h26.32zm.001-10c1.012-.035 1.904.912 1.904 1.999 0 1.036-.81 1.944-1.747 1.996l-.141.001-26.14-.001c-1.004.073-1.935-.834-1.968-1.881-.065-1.026.697-1.98 1.629-2.102l.141-.012h26.322zm.016-9.001c1.008 0 1.888.938 1.888 2.012 0 1.03-.81 1.933-1.747 1.984l-.141.001-26.142-.001c-1.005.07-1.934-.828-1.967-1.87-.064-1.013.687-1.957 1.613-2.108l.14-.017.035-.001h26.321zm14.389-7c-1.145 0-1.983.251-2.571.791-.395.362-.725 1.127-.929 2.209h7c-.205-1.088-.539-1.845-.955-2.21-.589-.541-1.408-.79-2.544-.79z" fill="#ECEFF1" fill-rule="nonzero"/></svg>