<svg width="100" height="100" viewBox="0 0 100 100" xmlns="http://www.w3.org/2000/svg"><path d="M77.314 21l11.822 18.545-39.343 42.455-39.341-42.451 12.043-18.549h54.819zm-15.886 21.987h-23.265l11.631 33.149 11.634-33.149zm-27.459 0h-14.909l23.255 25.072-8.346-25.072zm46.558-.004h-14.907l-8.348 25.072 23.255-25.072zm-3.213-14.664l-9.325 10.677h16l-6.674-10.677zm-54.819 0l-6.897 10.677h15.994l-9.097-10.677zm27.253-3.325l-12.044 14.002h24.175l-12.131-14.002zm-4.931 0h-19.959l9.791 11.362 10.168-11.362zm29.912 0h-19.988l10.19 11.362 9.799-11.362z" fill="#ECEFF1" fill-rule="nonzero"/></svg>