<svg width="100" height="100" viewBox="0 0 100 100" xmlns="http://www.w3.org/2000/svg"><path d="M25.742 11.365l.001.002.154.224c.942 1.389 2.043 3.418 2.958 5.769 1.372 3.524 2.097 7.191 1.935 10.878 1.39 1.075 2.21 2.722 2.21 4.495v46.537c0 2.059-1.801 3.773-3.965 3.773h-10.07c-2.162 0-3.965-1.715-3.965-3.773v-46.462c0-1.77.818-3.418 2.211-4.547-.165-3.697.575-7.372 1.974-10.908.978-2.473 2.144-4.555 3.152-5.991.808-1.149 2.6-1.15 3.405.003zm26 0l.001.002.154.224c.942 1.389 2.043 3.418 2.958 5.769 1.372 3.524 2.097 7.191 1.935 10.878 1.39 1.075 2.21 2.722 2.21 4.495v46.537c0 2.059-1.801 3.773-3.965 3.773h-10.07c-2.162 0-3.965-1.715-3.965-3.773v-46.462c0-1.77.818-3.418 2.211-4.547-.165-3.697.575-7.372 1.974-10.908.978-2.473 2.144-4.555 3.152-5.991.808-1.149 2.6-1.15 3.405.003zm26 0l.001.002.154.224c.942 1.389 2.043 3.418 2.958 5.769 1.372 3.524 2.097 7.191 1.935 10.878 1.39 1.075 2.21 2.722 2.21 4.495v46.537c0 2.059-1.801 3.773-3.965 3.773h-10.07c-2.162 0-3.965-1.715-3.965-3.773v-46.462c0-1.77.818-3.418 2.211-4.547-.165-3.697.575-7.372 1.974-10.908.978-2.473 2.144-4.555 3.152-5.991.808-1.149 2.6-1.15 3.405.003zm-48.742 63.644h-10v4h10v-4zm26 0h-10v4h10v-4zm26 0h-10v4h10v-4zm-57.055-58.61c-1.916 3.921-3.034 8.178-2.65 12.551.156.815-.287 1.608-1.071 1.977-.694.33-1.224 1.043-1.224 1.806v38.297h10v-38.297c0-.743-.661-1.44-1.409-1.82l-.105-.06c-.592-.375-.945-1.049-.945-1.731l.006-.116c.452-4.395-.691-8.799-2.602-12.607zm26 0c-1.916 3.921-3.034 8.178-2.65 12.551.156.815-.287 1.608-1.071 1.977-.694.33-1.224 1.043-1.224 1.806v38.297h10v-38.297c0-.743-.661-1.44-1.409-1.82l-.105-.06c-.592-.375-.945-1.049-.945-1.731l.006-.116c.452-4.395-.691-8.799-2.602-12.607zm26 0c-1.916 3.921-3.034 8.178-2.65 12.551.156.815-.287 1.608-1.071 1.977-.694.33-1.224 1.043-1.224 1.806v38.297h10v-38.297c0-.743-.661-1.44-1.409-1.82l-.105-.06c-.592-.375-.945-1.049-.945-1.731l.006-.116c.452-4.395-.691-8.799-2.602-12.607z" fill="#ECEFF1" fill-rule="nonzero"/></svg>