<svg width="100" height="100" viewBox="0 0 100 100" xmlns="http://www.w3.org/2000/svg"><path d="M50 76c1.105 0 2 .895 2 2v4c0 1.105-.895 2-2 2s-2-.895-2-2v-4c0-1.105.895-2 2-2zm14.111-62.119l.039.144 15.5 67.5c.247 1.077-.425 2.15-1.502 2.397-1.028.236-2.052-.366-2.358-1.357l-.039-.144-15.5-67.5c-.247-1.077.425-2.15 1.502-2.397 1.028-.236 2.052.366 2.358 1.357zm-32.359 27.076c1.077.247 1.749 1.32 1.502 2.397l-8.971 39.067c-.247 1.077-1.32 1.749-2.397 1.502-1.077-.247-1.749-1.32-1.502-2.397l8.971-39.067c.247-1.077 1.32-1.749 2.397-1.502zm18.248 23.043c1.105 0 2 .895 2 2v4c0 1.105-.895 2-2 2s-2-.895-2-2v-4c0-1.105.895-2 2-2zm0-12c1.105 0 2 .895 2 2v4c0 1.105-.895 2-2 2s-2-.895-2-2v-4c0-1.105.895-2 2-2zm0-12c1.105 0 2 .895 2 2v4c0 1.105-.895 2-2 2s-2-.895-2-2v-4c0-1.105.895-2 2-2zm0-12c1.105 0 2 .895 2 2v4c0 1.105-.895 2-2 2s-2-.895-2-2v-4c0-1.105.895-2 2-2zm-11.719-15.476c1.077.247 1.749 1.32 1.502 2.397l-3.326 14.486c-.247 1.077-1.32 1.749-2.397 1.502-1.077-.247-1.749-1.32-1.502-2.397l3.326-14.486c.247-1.077 1.32-1.749 2.397-1.502zm11.719 3.476c1.105 0 2 .895 2 2v4c0 1.105-.895 2-2 2s-2-.895-2-2v-4c0-1.105.895-2 2-2z" fill="#ECEFF1" fill-rule="nonzero"/></svg>