<svg width="100" height="100" viewBox="0 0 100 100" xmlns="http://www.w3.org/2000/svg"><path d="M51.367 43.588l.261.711c.208.568.439 1.208.688 1.904.534 1.492 1.068 3.015 1.582 4.521l.507 1.499.012.036c.906 2.706 1.59 4.873 2.11 6.732.737 2.639 1.009 3.934 1.009 5.169 0 4.411-3.613 8.024-8.024 8.024s-8.024-3.613-8.026-8.024c0-1.235.273-2.53 1.009-5.169.485-1.735 1.113-3.739 1.931-6.198l.178-.534.012-.036c.665-1.987 1.377-4.032 2.089-6.021.249-.696.481-1.335.688-1.904l.263-.714c.277-.715.937-1.207 1.699-1.265.876-.073 1.696.444 2.01 1.268zm-1.855 6.658l-.028.077-.028.078-.24.66-.017.048c-.26.72-.475 1.34-.825 2.389-.819 2.45-1.533 4.732-2.05 6.574-.49 1.76-.881 3.645-.881 4.089 0 2.268 1.802 4.07 4.07 4.07 2.266 0 4.068-1.802 4.068-4.07 0-.444-.391-2.329-.881-4.089-.51-1.826-1.219-4.086-2.05-6.574-.314-.942-.518-1.536-.748-2.177l-.078-.216-.016-.044-.239-.66-.056-.155zm.631-24.333c20.762.343 37.622 17.595 37.622 38.547 0 1.136-.918 2.272-1.976 2.272h-7.822c-1.131 0-1.97-.712-1.954-1.778.015-1.056.861-1.72 2.002-1.72h5.621c-.436-8.366-3.379-15.457-8.594-21.336l-2.54 2.051-.049.049-.016.015c-.792.753-2.053.721-2.803-.071-.755-.792-.733-2.044.051-2.79l2.54-2.568c-5.944-5.351-12.607-8.228-20.849-8.654v5.778c0 1.129-.713 1.967-1.778 1.954-1.057-.015-1.722-.86-1.722-2.002v-5.73c-8.264.427-15.04 3.338-20.968 8.675l2.414 2.59.058.093.093.106c.608.75.593 1.879-.036 2.61l-.117.125c-.803.782-2.05.857-2.784.102l-2.567-2.323c-5.207 5.878-8.146 12.965-8.582 21.326h5.669c1.132 0 1.97.71 1.954 1.776-.015 1.058-.859 1.722-2.002 1.722h-7.774c-1.058 0-1.976-1.136-1.976-2.272 0-21.164 17.203-38.552 38.254-38.552l.63.005z" fill="#ECEFF1" fill-rule="nonzero"/></svg>