<svg width="100" height="100" viewBox="0 0 100 100" xmlns="http://www.w3.org/2000/svg"><path d="M84.028 26c1.09 0 1.972.899 1.972 2.006v21.131c0 1.107-.883 2.004-1.972 2.004h-5.507c-7.659-.022-14.083 5.179-15.065 12.812h7.73c5.142 0 9.311 4.814 9.311 10.04 0 1.108-.883 2.006-1.974 2.006h-52.591c-1.091 0-1.974-.899-1.974-2.006 0-5.226 4.169-10.04 9.311-10.04h8.41c-.962-6.254-6.29-10.353-12.606-10.326h-2.531c-1.09 0-1.974-.899-1.974-2.006v-1.722h-.471c-10.547 0-19.098-9.17-19.098-19.887 0-1.109.883-2.006 1.974-2.006h17.594l.001-.506.001-.119c0-.977.786-1.276 1.75-1.367l.223-.014h57.485zm-1.974 4.013h-53.537v.497l.001 2.838c0 1.051-.902 1.861-1.974 1.861-1.071 0-1.972-.81-1.972-1.861v-1.33h-15.539c.98 7.632 7.405 13.89 15.067 13.868h.472l.001-5.232c0-1.022.912-1.781 1.972-1.781 1.062 0 1.974.759 1.974 1.781v8.96h.619c9.196 0 16.651 7 16.651 16.345 0 1.109-.882 2.006-1.972 2.006h-10.545c-2.231 0-4.192 1.971-4.988 4.021h47.893c-.796-2.049-2.758-4.021-4.988-4.021h-9.786c-1.09 0-1.972-.898-1.972-2.006 0-10.718 8.548-18.829 19.096-18.829h3.53v-17.118z" fill="#ECEFF1" fill-rule="nonzero"/></svg>