<svg width="100" height="100" viewBox="0 0 100 100" xmlns="http://www.w3.org/2000/svg"><path d="M41.145 16.166l.208.029 11.116 3.206c.124.036.237.103.327.195l.093.062c.169.113.234.16.339.265l24.147 25.214c.199.199.369.511.418.8l7.034 22.596.034.223c.306 1.717-1.714 1.918-1.863 1.925l-30.938 4.464-9.864 4.932c-.152.111-.322.17-.506.2l-.332.023-.184-.004-7.16-.748c-.171-.018-.331-.094-.452-.216l.083.075c-.206-.068-.317-.115-.445-.226l-5.962-3.983c-.373-.185-.532-.405-.758-.857l-.043-.099-7.806-22.243c-.206-.617-.002-1.33.517-1.855l3.504-3.304v-9.188c0-.337.077-.544.287-.964l.052-.092 3.318-4.978.725-6.9c0-.673.297-1.096.914-1.507l11.97-6.84c.11-.063.235-.097.361-.099h.011l-.034-.001.012-.014c.217-.072.288-.091.45-.091h.428zm-16.227 33.627l-2.256 2.176 7.136 20.575 5.3 3.498 5.715.584 8.482-10.654-10.178-8.564-14.2-7.615zm41.413 10.422l-13.263 6.991-4.84 6.013 2.757-1.353c.211-.169.417-.22.68-.226l26.403-3.872-11.737-7.553zm-21.567-39.156l3.064 5.321 12.253 11.196c.193.123.323.285.421.482l.045.095.106.188 7.182 18.585 12.058 7.732-5.424-17.316-23.469-24.42-6.237-1.863zm2.885 9.958l-2.015 12.572v.154l-.031.214-3.389 11.395 9.822 8.335 12.109-6.399-6.751-17.385-9.746-8.886zm-19.032 3.849l-2.223 3.332v8.412l12.579 6.824 2.69-9.179-13.046-9.39zm11.61-14.469l-9.6 5.526-.559 5.49 12.452 8.88 2.009-12.44-4.302-7.456z" fill="#ECEFF1" fill-rule="nonzero"/></svg>