<svg width="100" height="100" viewBox="0 0 100 100" xmlns="http://www.w3.org/2000/svg"><path d="M73.15 16.071c.52.028.979.222 1.336.565l.005.005 15.191 15.228c.337.355.477.803.491 1.368 0 .498-.24.98-.627 1.375l-11.526 11.388c-.752.725-2.265.732-2.995.034l-2.986-2.561v37.59c0 1.871-1.489 2.938-3.25 2.938h-37.255c-2.001 0-3.522-1.067-3.522-2.938v-37.58l-2.846 2.504c-.732.76-2.426.764-3.218-.004l-10.36-11.369c-.362-.383-.555-.866-.555-1.377 0-.503.196-.996.564-1.382l16.181-15.216c.346-.337.802-.538 1.316-.568l10.798-.07c.841 0 1.585.517 1.873 1.311.19.578.5 1.158.922 1.732 1.708 2.235 4.748 3.583 8.133 3.583 3.323 0 6.441-1.384 8.117-3.577.412-.554.727-1.141.932-1.732l.054-.145c.296-.707 1.003-1.172 1.801-1.172l11.426.071zm-10.167 3.843c-.272.528-.592 1.032-.955 1.503-2.436 3.215-6.631 5.125-11.219 5.125-4.589 0-8.789-1.915-11.229-5.134-.287-.369-.551-.764-.788-1.18l-.172-.315-8.697.07-14.223 13.295 7.622 8.58 5.241-4.388c.581-.544 1.839-1.084 2.716-.576.877.507 1.093.941 1.093 1.977v41.13h35.307v-41.126c0-.781.494-1.454 1.718-1.981 1.224-.526 2.626.049 3.157.609l4.344 4.343 8.603-8.601-13.2-13.262-9.319-.07z" fill="#ECEFF1" fill-rule="nonzero"/></svg>