<svg width="100" height="100" viewBox="0 0 100 100" xmlns="http://www.w3.org/2000/svg"><path d="M31.352 25.348c.345-.926 1.344-1.435 2.297-1.167l43.438 12.151c12.051.075 16.913 5.409 16.913 18.461 0 4.221-1.66 6.988-4.787 8.529-2.408 1.186-5.374 1.601-9.933 1.662-.477.006-.888.009-1.502.01l-66.878.001c-1.049 0-1.9-.849-1.9-1.894v-21.826c0-1.024.82-1.864 1.87-1.894.624 0 2.689-.157 4.661-.45 3.24-.481 6.064-1.255 8.089-2.367 1.619-.889 3.233-2.716 4.76-5.198.803-1.306 1.531-2.71 2.17-4.115.225-.495.423-.955.592-1.37l.211-.533zm58.659 31.343h-77.21v4.512h64.013c9.192 0 12.425-.873 13.196-4.512zm-12.075-16.545c-1.465 2.983-2.635 7.273-2.868 12.753h15.082c-.386-9.109-3.65-12.485-12.213-12.753zm-43.684-11.859c-2.219 5.116-5.175 9.605-8.797 11.595-3.379 1.856-7.996 2.817-12.654 3.181v9.836h58.46c.213-5.506 1.304-10.024 2.816-13.473l-5.063-1.416-3.297 4.961c-.355.538-.954.851-1.587.851-.371 0-.734-.108-1.048-.316-.878-.577-1.117-1.755-.534-2.627l2.623-3.944-4.52-1.264-3.257 4.901c-.358.537-.954.847-1.587.847-.37 0-.734-.108-1.044-.314-.879-.579-1.119-1.756-.536-2.628l2.579-3.882-4.426-1.238-3.307 4.975c-.355.538-.954.851-1.585.851-.37 0-.731-.108-1.051-.317-.875-.577-1.115-1.753-.535-2.626l2.633-3.96-4.54-1.27-3.246 4.885c-.358.534-.954.845-1.584.845-.372 0-.738-.109-1.048-.316-.878-.577-1.117-1.755-.534-2.626l2.567-3.864-5.899-1.65z" fill="#ECEFF1" fill-rule="nonzero"/></svg>