<svg width="100" height="100" viewBox="0 0 100 100" xmlns="http://www.w3.org/2000/svg"><path d="M54.322 17c.855-.006 1.651.586 1.896 1.411l1.9 6.622c1.356.441 2.623.959 3.812 1.566l6.035-3.353c.753-.398 1.729-.244 2.313.36l6.124 6.124c.594.607.722 1.583.309 2.319l-3.308 5.986c.637 1.245 1.174 2.529 1.602 3.845l6.594 1.868c.819.246 1.41 1.043 1.4 1.889v8.683c.01.857-.583 1.656-1.411 1.897l-6.584 1.867c-.419 1.273-.965 2.543-1.639 3.846l3.335 5.966c.445.755.315 1.766-.304 2.382l-6.128 6.129c-.608.588-1.582.716-2.317.303l-6.021-3.345c-1.248.642-2.52 1.178-3.813 1.602l-1.895 6.569c-.219.844-1.022 1.464-1.895 1.464h-8.655c-.873 0-1.676-.62-1.89-1.444l-1.9-6.588c-1.293-.423-2.565-.96-3.813-1.602l-6.018 3.343c-.739.415-1.714.288-2.33-.31l-6.117-6.119c-.621-.617-.751-1.629-.315-2.368l3.343-5.983c-.673-1.301-1.219-2.571-1.638-3.845l-6.59-1.868c-.822-.24-1.415-1.039-1.406-1.887v-8.685c-.01-.855.583-1.654 1.412-1.9l6.583-1.865c.429-1.317.965-2.601 1.602-3.845l-3.306-5.981c-.416-.74-.287-1.716.312-2.329l6.109-6.109c.593-.613 1.569-.768 2.335-.362l6.022 3.345c1.189-.607 2.456-1.125 3.812-1.566l1.924-6.692c.306-.772.949-1.354 1.872-1.341h8.644zm-1.429 3.913h-5.786l-1.71 6.088c-.184.642-.702 1.16-1.351 1.347-1.778.489-3.51 1.211-5.135 2.135-.58.318-1.309.318-1.891-.001l-5.58-3.083-4.04 4.038 3.117 5.582c.322.583.322 1.314-.005 1.903-.931 1.633-1.644 3.329-2.132 5.094-.184.641-.701 1.16-1.342 1.346l-6.126 1.744v5.752l6.129 1.747c.638.185 1.155.703 1.341 1.35.485 1.757 1.199 3.453 2.127 5.082.346.598.346 1.36.008 1.944l-3.081 5.58 4.004 4.004 5.576-3.078c.583-.327 1.318-.327 1.904.002 1.617.918 3.349 1.639 5.134 2.13.64.184 1.158.702 1.342 1.344l1.746 6.126h5.714l1.746-6.128c.184-.64.702-1.158 1.351-1.344 1.776-.489 3.509-1.21 5.129-2.13.583-.327 1.318-.327 1.897-.002l5.58 3.081 4.004-4.004-3.073-5.567c-.346-.598-.346-1.36-.003-1.953.931-1.633 1.644-3.329 2.132-5.095.184-.64.702-1.158 1.344-1.342l6.124-1.746v-5.752l-6.126-1.744c-.641-.184-1.158-.703-1.344-1.352-.485-1.757-1.199-3.453-2.134-5.094-.322-.581-.322-1.313.001-1.899l3.115-5.579-4.04-4.038-5.582 3.084c-.58.318-1.309.318-1.899-.006-1.615-.919-3.347-1.64-5.134-2.132-.641-.184-1.158-.703-1.343-1.349l-1.709-6.084zm-2.892 15.192c7.658 0 13.896 6.238 13.896 13.896 0 7.659-6.237 13.896-13.896 13.896-7.661 0-13.898-6.236-13.898-13.896 0-7.658 6.238-13.896 13.898-13.896zm0 3.912c-5.529 0-9.986 4.455-9.986 9.984s4.457 9.986 9.986 9.986c5.527 0 9.984-4.457 9.984-9.986 0-5.528-4.456-9.984-9.984-9.984z" fill="#ECEFF1" fill-rule="nonzero"/></svg>