<svg width="100" height="100" viewBox="0 0 100 100" xmlns="http://www.w3.org/2000/svg"><path d="M50.274 14.254l31.431 12.545c.771.313 1.302 1.109 1.295 1.935v42.345c-.006.819-.535 1.596-1.298 1.905l-31.427 12.545c-.493.198-1.058.198-1.55.001l-31.43-12.547c-.761-.308-1.289-1.085-1.295-1.907v-42.337c-.007-.831.523-1.627 1.298-1.941l31.465-12.557c.213-.066.435-.109.663-.12.293-.014.574.025.848.133zm28.581 17.521l-11.568 4.623v11.205c-.016 1.142-.959 2.057-2.101 2.039-1.145-.016-2.061-.956-2.045-2.09v-9.503l-11.568 4.622v37.86l27.282-10.873v-37.882zm-58.71 0v37.883l27.282 10.873v-37.859l-27.282-10.896zm13.642-7.084l-10.118 4.043 25.832 10.292 10.114-4.021-25.828-10.314zm15.714-6.272l-10.118 4.043 25.83 10.292 10.116-4.021-25.828-10.314z" fill="#ECEFF1" fill-rule="nonzero"/></svg>