<svg width="100" height="100" viewBox="0 0 100 100" xmlns="http://www.w3.org/2000/svg"><path d="M50 7.25c1.117 0 2.025.913 2.025 2.038v3.679h23.953c1.116 0 2.023.914 2.023 2.04v8.059c0 1.127-.906 2.042-2.023 2.042h-1.034v32.872h1.034c1.116 0 2.023.914 2.023 2.04v7.96c0 1.126-.907 2.04-2.023 2.04h-7.627l7.959 18.369c.481 1.133-.037 2.23-1.071 2.671-1.031.439-2.176.057-2.65-1.064l-8.642-19.977h-11.921v8.396c0 1.126-.907 2.038-2.025 2.038-1.118 0-2.025-.912-2.025-2.038v-8.396h-11.921l-8.642 19.977c-.478 1.119-1.623 1.501-2.652 1.063-1.034-.44-1.55-1.537-1.068-2.672l7.958-18.369h-7.625c-1.118 0-2.025-.914-2.025-2.04v-7.96c0-1.126.907-2.04 2.025-2.04h1.03v-32.872h-1.03c-1.118 0-2.025-.914-2.025-2.042v-8.059c0-1.126.907-2.04 2.025-2.04h23.951v-3.679c0-1.125.907-2.038 2.025-2.038zm23.951 54.808h-47.904v3.882h47.904v-3.882zm-3.055-36.952h-41.793v32.874h41.793v-32.874zm-44.849-8.059v3.981h47.904v-3.981h-47.904z" fill="#ECEFF1" fill-rule="nonzero"/></svg>