<svg width="100" height="100" viewBox="0 0 100 100" xmlns="http://www.w3.org/2000/svg"><path d="M44.614 15.499l.153.077 6.15 3.421 6.273-3.19c.67-.337 1.474-.262 2.066.198.594.459.884 1.213.747 1.944l-.469 2.484c14.199 3.845 23.967 15.844 23.967 29.564 0 17.018-15.03 30.839-33.5 30.839-18.469 0-33.5-13.822-33.5-30.839 0-14.31 10.71-26.732 25.743-30.012l-.359-2.38c-.11-.74.206-1.48.815-1.914.564-.401 1.292-.469 1.914-.19zm-1.669 9.133l-.11-.728c-13.119 2.969-22.412 13.742-22.412 26.092 0 14.814 13.263 26.881 29.578 26.881 16.315 0 29.58-12.067 29.58-26.881 0-11.675-8.253-21.961-20.374-25.553l-.405-.117-.11.583 4.937 5.038c.53.535.709 1.333.46 2.047-.232.658-.782 1.14-1.45 1.285l-.156.027-6.96.893-3.23 6.312c-.334.594-.934.988-1.595 1.045l-.166.007h-.041c-.688-.014-1.314-.395-1.659-.994l-.075-.142-2.981-6.407-6.93-1.147c-.737-.129-1.343-.662-1.549-1.369-.208-.667-.042-1.391.425-1.903l.113-.114 5.113-4.855-.11-.728.11.728zm3.415-3.645l.615 4.067c.098.648-.126 1.307-.595 1.737l-2.976 2.814 4.02.67c.639.111 1.179.519 1.454 1.106l1.734 3.723 1.876-3.657c.294-.579.867-.983 1.498-1.051l4.047-.517-2.87-2.927c-.459-.461-.656-1.12-.531-1.765l.769-4.036-3.639 1.846c-.578.292-1.259.281-1.829-.029l-3.574-1.982z" fill="#ECEFF1" fill-rule="nonzero"/></svg>