<svg width="100" height="100" viewBox="0 0 100 100" xmlns="http://www.w3.org/2000/svg"><path d="M66.633 9c1.128 0 2.04.903 2.04 2.018l-.007 12.925 3.293 16.289.023.13.013.133.004.135v48.353c0 1.116-.913 2.018-2.042 2.018h-39.917c-1.127 0-2.04-.902-2.04-2.018v-48.353c0-.139.014-.273.042-.397l3.285-16.217v-12.998c0-1.115.914-2.018 2.042-2.018h33.265zm-1.674 17.198h-29.92l-2.957 14.595v46.169h35.835l.007-46.096-2.965-14.668zm-15.85 32.254c.636-.602 1.632-.602 2.268 0 1.188 1.126 7.112 6.95 7.112 11.092 0 4.546-3.7 8.246-8.246 8.246s-8.244-3.7-8.244-8.246c0-4.142 5.922-9.966 7.11-11.092zm1.134 3.526c-2.336 2.446-4.948 5.836-4.948 7.566 0 2.728 2.222 4.948 4.948 4.948 2.728 0 4.948-2.22 4.948-4.948 0-1.732-2.61-5.126-4.948-7.566zm8.756-22.977c1.105 0 2 .895 2 2s-.895 2-2 2h-18c-1.105 0-2-.895-2-2s.895-2 2-2h18zm5.591-25.962h-29.182v9.122h29.182v-9.122z" fill="#ECEFF1" fill-rule="nonzero"/></svg>