<svg width="100" height="100" viewBox="0 0 100 100" xmlns="http://www.w3.org/2000/svg"><path d="M50.064 4.996c1.127.011 2.007.974 1.994 2.099l-.07 6.381c3.036 3.17 5.72 7.406 5.662 12.401-.008.825-.076 1.465-.254 2.412 1.043-.553 2.108-.994 3.174-1.354l.122-10.69c.011-1.127.882-1.98 2.01-1.967l.152.007c1.05.086 1.825.928 1.812 2.003l-.133 11.832c.313 1.22.57 2.84.624 4.662.079 2.684-.311 5.27-1.309 7.613.27.295.42.519.513.808.076.238.217.834.337 1.512.186 1.054.309 2.201.337 3.405.08 3.395-.589 6.619-2.261 9.399-.675 1.102-1.459 2.079-2.447 3.046-1.482 1.448-3.245 2.622-5.191 3.568-1.19.579-1.976.951-3.146 1.336v29.552c-.005.524-.226 2.023-1.924 2.023-1.697 0-2.077-.892-2.064-2.023v-29.552c-3.929-1.123-8.349-4.145-10.735-8.451-1.608-2.814-2.204-6.052-2.048-9.445.056-1.203.204-2.347.414-3.396.123-.615.263-1.163.348-1.432.016-.218.082-.367.235-.546-.95-2.368-1.304-4.986-1.195-7.694.074-1.856.363-3.577.677-4.706l.133-11.832c.013-1.128.883-1.977 2.009-1.964 1.125.011 1.978.882 1.967 2.008l-.122 10.673c1.126.353 2.303.87 3.502 1.583-.166-.903-.249-1.792-.238-2.648-.034-4.766 2.071-9.189 5.066-12.183l-.013-6.337c.013-1.126.937-2.109 2.064-2.099zm10.821 39.344c-1.827.686-3.879 1.917-5.434 3.435-.782.764-1.301 1.448-1.849 2.409-1 1.858-1.518 3.905-1.6 6.018l-.011.423-.004.169.001.016.069.853c.055.666.099 1.173.141 1.578 1.827-.686 3.879-1.917 5.43-3.433.64-.628 1.186-1.319 1.58-2.003l.174-.318c1.523-2.579 1.867-5.763 1.502-9.147zm-21.696-.23c-.438 3.369-.165 6.555 1.297 9.161 1.514 2.64 3.751 4.283 7.064 5.866.468-3.513.223-6.457-1.311-9.136-1.453-2.752-4.018-4.639-7.05-5.891zm21.764-13.258c-2.874 1.137-5.597 3.078-7.203 5.739-1.443 2.59-1.826 5.457-1.564 8.577l.468-.468c1.857-1.815 4.089-3.13 6.596-4.138l.037-.04.067-.075.002.009.121-.164c1.625-2.691 1.937-6.139 1.477-9.439zm-21.933-.027c-.438 3.342-.214 6.572 1.125 9.257.043.136.08.207.121.259 2.807 1.175 5.241 2.661 7.191 4.708.356-2.816-.02-5.834-1.388-8.329-1.453-2.751-4.01-4.633-7.049-5.894zm11.237-13.579c-2.139 2.842-3.41 5.536-3.444 8.511-.032 2.972 1.177 5.693 3.251 8.582 1.965-2.38 3.364-5.364 3.399-8.509.036-3.182-1.26-6.143-3.206-8.584z" fill="#ECEFF1" fill-rule="nonzero"/></svg>