<svg width="100" height="100" viewBox="0 0 100 100" xmlns="http://www.w3.org/2000/svg"><path d="M62.161 14.688c.769 0 1.462.465 1.758 1.176.296.711.133 1.528-.412 2.074l-15.48 15.48 1.461 1.457c.74.743.74 1.947-.001 2.69l-1.463 1.463 35.108 35.11c.36.354.561.839.561 1.346 0 4.14-3.37 7.51-7.51 7.51-.504 0-.988-.2-1.348-.556l-35.112-35.112-1.454 1.454c-.741.741-1.948.741-2.689.001l-1.46-1.456-15.481 15.479c-.36.36-.845.558-1.346.558-.253 0-.5-.048-.727-.144-.712-.295-1.175-.987-1.175-1.756 0-8.473 4.477-16.274 10.42-22.443l-1.451-1.452c-.744-.741-.744-1.949-.001-2.69l1.46-1.46-2.279-2.281c-.889-.887-1.381-2.072-1.381-3.328 0-1.254.492-2.441 1.38-3.328l1.644-1.644c1.783-1.781 4.872-1.781 6.653 0l2.281 2.28 1.458-1.458c.743-.741 1.947-.741 2.688 0l1.453 1.45c6.172-5.946 13.969-10.422 22.444-10.422zm-16.826 27.03l-2.919 2.919 34.484 34.484c1.402-.276 2.524-1.347 2.874-2.721l.045-.198-34.484-34.484zm-1.343-9.642l12.843-12.843c-3.641.98-7.214 2.875-10.596 5.385-2.36 1.751-4.218 3.49-5.102 4.475-.354.381-.845.605-1.277.607-.471.092-.963-.094-1.362-.438l-.117-.108-1.458-1.458-1.431 1.433-.025.026-3.63 3.628-3.44 3.44 1.458 1.458c.367.367.569.872.558 1.395-.016.523-.241 1.011-.624 1.359l-.475.457c-.365.361-.77.782-1.205 1.258-1.237 1.352-2.472 2.878-3.625 4.549-1.982 2.873-3.5 5.85-4.393 8.866l-.16.566 12.842-12.842c.7-.7 1.815-.739 2.561-.117l.128.117 1.46 1.46 8.527-8.527-1.457-1.458c-.7-.7-.739-1.815-.117-2.561l.117-.128 12.843-12.843-12.843 12.843zm-15.482-6.81c-.241 0-.467.093-.638.263l-1.638 1.64c-.173.176-.266.4-.266.641 0 .246.091.469.264.639l2.278 2.28 2.917-2.919-2.277-2.279c-.173-.172-.398-.265-.64-.265z" fill="#ECEFF1" fill-rule="nonzero"/></svg>