<svg width="100" height="100" viewBox="0 0 100 100" xmlns="http://www.w3.org/2000/svg"><path d="M71.012 42.941c-1.059.616-1.449 1.943-.918 3.026l.078.146 9.364 16.097c1.775 3.043-.096 7.7-4.283 7.877l-.231.005-17.265.059.611-.806 5.668-7.47c.773-1.019.573-2.476-.448-3.247-.975-.741-2.351-.592-3.146.314l-.105.128-9.115 12.015c-.576.755-.643 1.823-.099 2.662l.109.154 9.192 11.948c.781 1.015 2.238 1.205 3.253.425.97-.747 1.187-2.108.525-3.114l-.1-.141-6.333-8.228 1.012-.003 16.254-.054c7.301-.021 12.149-8.231 8.638-14.636l-.124-.22-9.366-16.1c-.643-1.107-2.063-1.482-3.17-.837zm-27.508 26.972l-18.626.06c-3.524.014-6.621-3.94-4.675-7.657l.107-.195 8.585-14.984.392.933 3.632 8.644c.496 1.179 1.857 1.735 3.037 1.239 1.13-.476 1.688-1.741 1.3-2.884l-.059-.155-5.846-13.899c-.369-.882-1.264-1.475-2.267-1.418l-.178.017-14.942 1.988c-1.271.17-2.164 1.336-1.994 2.604.162 1.22 1.239 2.089 2.448 2.012l.158-.016 10.293-1.369-.503.878-8.08 14.102c-3.632 6.333 1.052 14.635 8.356 14.797l.253.002 18.626-.06c1.28-.003 2.316-1.046 2.311-2.326-.005-1.226-.963-2.23-2.169-2.307l-.159-.005-.001-.015.001.015zm15.482-53.715c-3.71-6.383-13.421-6.405-17.124.055l-9.26 16.162c-.637 1.11-.252 2.529.859 3.166s2.529.253 3.168-.859l9.262-16.16c1.782-3.112 6.897-3.79 9.082-.031l8.685 14.926-1.004-.127-9.301-1.176c-1.27-.163-2.434.739-2.592 2.008l-.496-.062.496.062c-.16 1.274.74 2.434 2.011 2.594l14.96 1.89c1.003.126 2.024-.419 2.435-1.419l5.75-13.934c.489-1.185-.074-2.541-1.256-3.029-1.191-.489-2.543.073-3.034 1.26l-3.958 9.597-.509-.874-8.174-14.05z" fill="#ECEFF1" fill-rule="nonzero"/></svg>