<svg width="100" height="100" viewBox="0 0 100 100" xmlns="http://www.w3.org/2000/svg"><path d="M58.204 16l.157.57.179.666c.025.158.089.456.206.845.194.651.463 1.302.813 1.903.601 1.032 1.377 1.801 2.346 2.225 1.133.51 2.416.723 3.719.548 2-.288 4.268-1.078 6.72-2.386l1.447-.7.431.516.584.7c.439.563 1.459 1.866 2.883 3.684l.004.005 2.147 2.74.708.903.272.347 1.039 1.348-.677.429-.825.522-.386.259c-.327.23-.693.509-1.089.838-1.138.946-2.279 2.098-3.344 3.456-3.017 3.869-4.886 8.576-4.886 14.316 0 5.311 1.566 9.587 4.663 12.788 1.017 1.036 2.107 1.857 3.184 2.473.383.219.738.397 1.044.53l.246.101h.028l2.184.841-.507.74-.665.97-6.808 9.213-.644-.256-.695-.277-.348-.106c-.304-.086-.657-.172-1.053-.254-1.546-.316-3.259-.457-5.054-.324-4.536.324-8.757 3.006-12.296 7.55l-.245.315-.427.005-.499.006h-5.524l-.215-.025-.614-.147-.174-.218c-3.517-4.411-7.654-6.868-12.389-7.199-1.836-.138-3.566-.031-5.105.233-.371.064-.699.131-.981.199l-.336.087-1.327.37-8.093-10.876 1.014-.321 1.192-.377.342-.141c.298-.132.633-.298.995-.501 1.045-.585 2.092-1.346 3.07-2.301l.228-.227c3.098-3.13 4.663-7.406 4.663-12.792 0-5.793-1.862-10.498-4.879-14.235-1.067-1.329-2.21-2.462-3.349-3.398-.397-.326-.763-.603-1.091-.833l-.399-.266-1.496-.943 1.049-1.344.093-.1c-.027.024 1.507-1.993 3.064-4.044l.009-.011c1.504-1.981 2.366-3.113 2.868-3.759l1.025-1.183.635.344.816.442c4.574 2.507 8.066 3.187 10.432 2.156 2.047-.897 3.293-3.486 3.293-4.582v-2.056h16.629zm-13.063 3.928c-.499 2.937-1.866 4.202-5.437 5.683-3.31 1.376-7.419.848-12.347-1.524-.394.525-.904 1.196-1.855 2.443-1.091 1.431-1.723 2.266-2.172 2.871 1.351 1.027 2.851 2.477 4.275 4.26 3.436 4.321 5.599 9.709 5.599 16.212 0 6.566-2.234 11.576-5.742 15.036-1.274 1.254-2.612 2.234-3.985 3.017l4.135 5.542.038-.009.79-.182c1.918-.415 3.751-.583 5.652-.401 6.523.12 10.688 1.668 14.584 7.25h2.566c1.518-2.124 3.202-3.72 5.056-4.865 2.811-1.737 4.962-2.187 9.474-2.523l.08-.006c2.374-.169 4.538.068 6.53.529l4.124-5.501c-1.304-.727-2.662-1.722-3.983-3.017-3.548-3.6-5.732-8.476-5.732-15.015 0-6.553 2.151-11.977 5.597-16.272 1.416-1.769 2.899-3.197 4.258-4.229l-2.042-2.618-.038-.048c-.79-1.015-1.43-1.842-1.922-2.484-4.938 2.378-9.046 2.911-12.37 1.529-3.493-1.528-4.723-2.722-5.204-5.676h-9.927z" fill="#ECEFF1" fill-rule="nonzero"/></svg>