<svg width="100" height="100" viewBox="0 0 100 100" xmlns="http://www.w3.org/2000/svg"><path d="M83.731 31.973c1.243.017 2.419.457 3.489 1.267 1.246.943 2.35 2.389 3.254 4.256l.147.312c1.479 3.253 2.325 7.591 2.325 12.166 0 4.574-.846 8.914-2.325 12.164-1.678 3.684-4.15 5.835-6.949 5.835l-1.428.001c-6.761.008-13.789.071-29.854.026-24.221-.018-36.462-.027-36.723-.027-2.862 0-5.396-2.149-7.114-5.831-1.518-3.257-2.387-7.598-2.387-12.169 0-4.571.869-8.912 2.388-12.17 1.712-3.65 4.225-5.803 7.058-5.83h68.118zm-.043 4.027h-62.023c.403.608.776 1.076 1.115 1.805 1.519 3.254 2.387 7.594 2.387 12.169s-.869 8.915-2.388 12.169c-.325.695-.682 1.339-1.065 1.925l.76-.067h61.198c1.148 0 2.411-1.089 3.476-3.411 1.265-2.739 1.99-6.516 1.99-10.599 0-4.071-.727-7.862-1.991-10.599-1.043-2.289-2.321-3.377-3.459-3.391zm-68.022-.027c-1.16 0-2.427 1.256-3.501 3.549-1.267 2.696-1.998 6.436-1.998 10.451 0 4.025.728 7.748 1.998 10.452 1.074 2.293 2.341 3.548 3.501 3.548 1.159 0 2.425-1.255 3.499-3.549 1.27-2.699 2.002-6.438 2.002-10.451 0-4.025-.73-7.75-2.002-10.452-1.074-2.293-2.34-3.548-3.499-3.548zm61.334 17.027c1.105 0 2 .895 2 2s-.895 2-2 2h-23c-1.105 0-2-.895-2-2s.895-2 2-2h23zm-31.833 0c1.105 0 2 .895 2 2s-.895 2-2 2h-9c-1.105 0-2-.895-2-2s.895-2 2-2h9zm-29.667-8c1.105 0 2 2.239 2 5s-.895 5-2 5-2-2.239-2-5 .895-5 2-5zm43.667-2c1.105 0 2 .895 2 2s-.895 2-2 2h-23c-1.105 0-2-.895-2-2s.895-2 2-2h23zm17.833 0c1.105 0 2 .895 2 2s-.895 2-2 2h-9c-1.105 0-2-.895-2-2s.895-2 2-2h9z" fill="#ECEFF1" fill-rule="nonzero"/></svg>