<svg width="25" height="25" viewBox="0 0 25 25" xmlns="http://www.w3.org/2000/svg"><path d="M2.82 23.536c-.15 0-.271-.116-.271-.258v-15.612h19.903v15.612c0 .142-.121.258-.271.258h-19.361zm3.414-22.071h5.544v4.737h-8.427l2.884-4.737zm7.091 0h5.492l2.893 4.737h-8.385v-4.737zm10.551 5.403l-.093-.152-3.675-6.012c-.264-.433-.757-.702-1.285-.702h-12.646c-.53 0-1.023.269-1.286.704l-3.734 6.132-.076.172c-.052.134-.082.28-.082.431v15.839c0 .951.816 1.722 1.821 1.722h19.359c1.006 0 1.821-.771 1.821-1.722v-15.897l-.002-.063c.011-.142-.023-.287-.103-.418l-.02-.033z" fill="#CFDAE2"/></svg>
